<svg width="131" height="24" viewBox="0 0 131 24" fill="none" xmlns="http://www.w3.org/2000/svg">
<path opacity="0.6" d="M14 16C14 17.77 13.23 19.37 12 20.46C10.94 21.42 9.54 22 8 22C4.69 22 2 19.31 2 16C2 13.24 3.88 10.9 6.42 10.21C7.11 11.95 8.59 13.29 10.42 13.79C10.92 13.93 11.45 14 12 14C12.55 14 13.08 13.93 13.58 13.79C13.85 14.47 14 15.22 14 16Z" fill="#5030E5"/>
<path d="M18 8C18 8.78 17.85 9.53 17.58 10.21C16.89 11.95 15.41 13.29 13.58 13.79C13.08 13.93 12.55 14 12 14C11.45 14 10.92 13.93 10.42 13.79C8.59 13.29 7.11 11.95 6.42 10.21C6.15 9.53 6 8.78 6 8C6 4.69 8.69 2 12 2C15.31 2 18 4.69 18 8Z" fill="#5030E5"/>
<path opacity="0.4" d="M22 16C22 19.31 19.31 22 16 22C14.46 22 13.06 21.42 12 20.46C13.23 19.37 14 17.77 14 16C14 15.22 13.85 14.47 13.58 13.79C15.41 13.29 16.89 11.95 17.58 10.21C20.12 10.9 22 13.24 22 16Z" fill="#5030E5"/>
<path d="M34.4347 19V4.45455H39.8892C41.0066 4.45455 41.9441 4.66288 42.7017 5.07955C43.464 5.49621 44.0393 6.06913 44.4276 6.7983C44.8205 7.52273 45.017 8.34659 45.017 9.26989C45.017 10.2027 44.8205 11.0312 44.4276 11.7557C44.0346 12.4801 43.4545 13.0507 42.6875 13.4673C41.9205 13.8793 40.9759 14.0852 39.8537 14.0852H36.2386V11.919H39.4986C40.152 11.919 40.687 11.8054 41.1037 11.5781C41.5204 11.3509 41.8281 11.0384 42.027 10.6406C42.2306 10.2429 42.3324 9.78598 42.3324 9.26989C42.3324 8.75379 42.2306 8.29924 42.027 7.90625C41.8281 7.51326 41.518 7.20786 41.0966 6.99006C40.6799 6.76752 40.1425 6.65625 39.4844 6.65625H37.0696V19H34.4347ZM47.1921 19V8.09091H49.685V9.90909H49.7987C49.9975 9.27936 50.3384 8.79403 50.8214 8.45312C51.3091 8.10748 51.8654 7.93466 52.4904 7.93466C52.6325 7.93466 52.7911 7.94176 52.9663 7.95597C53.1462 7.96544 53.2953 7.98201 53.4137 8.00568V10.3707C53.3048 10.3329 53.132 10.2997 52.8952 10.2713C52.6632 10.2382 52.4383 10.2216 52.2205 10.2216C51.7518 10.2216 51.3304 10.3234 50.9563 10.527C50.587 10.7259 50.2958 11.0028 50.0827 11.358C49.8697 11.7131 49.7631 12.1226 49.7631 12.5866V19H47.1921ZM59.4311 19.2131C58.3658 19.2131 57.4425 18.9787 56.6612 18.5099C55.88 18.0412 55.2739 17.3854 54.843 16.5426C54.4169 15.6998 54.2038 14.715 54.2038 13.5881C54.2038 12.4612 54.4169 11.474 54.843 10.6264C55.2739 9.77888 55.88 9.12074 56.6612 8.65199C57.4425 8.18324 58.3658 7.94886 59.4311 7.94886C60.4964 7.94886 61.4197 8.18324 62.201 8.65199C62.9822 9.12074 63.5859 9.77888 64.0121 10.6264C64.4429 11.474 64.6584 12.4612 64.6584 13.5881C64.6584 14.715 64.4429 15.6998 64.0121 16.5426C63.5859 17.3854 62.9822 18.0412 62.201 18.5099C61.4197 18.9787 60.4964 19.2131 59.4311 19.2131ZM59.4453 17.1534C60.023 17.1534 60.5059 16.9948 60.8942 16.6776C61.2824 16.3556 61.5713 15.9247 61.7607 15.3849C61.9548 14.8452 62.0518 14.2438 62.0518 13.581C62.0518 12.9134 61.9548 12.3097 61.7607 11.7699C61.5713 11.2254 61.2824 10.7921 60.8942 10.4702C60.5059 10.1482 60.023 9.98722 59.4453 9.98722C58.8535 9.98722 58.361 10.1482 57.968 10.4702C57.5798 10.7921 57.2886 11.2254 57.0945 11.7699C56.9051 12.3097 56.8104 12.9134 56.8104 13.581C56.8104 14.2438 56.9051 14.8452 57.0945 15.3849C57.2886 15.9247 57.5798 16.3556 57.968 16.6776C58.361 16.9948 58.8535 17.1534 59.4453 17.1534ZM66.8406 8.09091H69.4116V19.625C69.4116 20.411 69.2624 21.0597 68.9641 21.571C68.6658 22.0824 68.235 22.4635 67.6715 22.7145C67.1081 22.9654 66.4239 23.0909 65.619 23.0909C65.5243 23.0909 65.4367 23.0885 65.3562 23.0838C65.2757 23.0838 65.1881 23.0814 65.0934 23.0767V20.9815C65.1644 20.9863 65.2283 20.9886 65.2852 20.9886C65.342 20.9934 65.4012 20.9957 65.4627 20.9957C65.9551 20.9957 66.3079 20.875 66.521 20.6335C66.734 20.3968 66.8406 20.0488 66.8406 19.5895V8.09091ZM68.119 6.54261C67.707 6.54261 67.3543 6.40767 67.0607 6.13778C66.7719 5.86316 66.6275 5.53409 66.6275 5.15057C66.6275 4.76231 66.7719 4.43324 67.0607 4.16335C67.3543 3.88873 67.707 3.75142 68.119 3.75142C68.5262 3.75142 68.8742 3.88873 69.163 4.16335C69.4566 4.43324 69.6033 4.76231 69.6033 5.15057C69.6033 5.53409 69.4566 5.86316 69.163 6.13778C68.8742 6.40767 68.5262 6.54261 68.119 6.54261ZM76.8849 19.2131C75.7912 19.2131 74.8466 18.9858 74.0511 18.5312C73.2604 18.072 72.652 17.4233 72.2259 16.5852C71.7997 15.7424 71.5866 14.7505 71.5866 13.6094C71.5866 12.4872 71.7997 11.5024 72.2259 10.6548C72.6567 9.80256 73.258 9.13968 74.0298 8.66619C74.8016 8.18797 75.7083 7.94886 76.75 7.94886C77.4223 7.94886 78.0568 8.05777 78.6534 8.27557C79.2547 8.48864 79.785 8.82008 80.2443 9.26989C80.7083 9.7197 81.0729 10.2926 81.3381 10.9886C81.6032 11.6799 81.7358 12.5038 81.7358 13.4602V14.2486H72.794V12.5156H79.2713C79.2666 12.0232 79.16 11.5852 78.9517 11.2017C78.7434 10.8134 78.4522 10.508 78.0781 10.2855C77.7088 10.063 77.2779 9.9517 76.7855 9.9517C76.2599 9.9517 75.7983 10.0795 75.4006 10.3352C75.0028 10.5862 74.6927 10.9176 74.4702 11.3295C74.2524 11.7367 74.1411 12.1842 74.1364 12.6719V14.1847C74.1364 14.8191 74.2524 15.3636 74.4844 15.8182C74.7164 16.268 75.0407 16.6136 75.4574 16.8551C75.8741 17.0919 76.3617 17.2102 76.9205 17.2102C77.2945 17.2102 77.633 17.1581 77.9361 17.054C78.2391 16.9451 78.5019 16.7865 78.7244 16.5781C78.947 16.3698 79.1151 16.1117 79.2287 15.804L81.6293 16.0739C81.4777 16.7083 81.1889 17.2623 80.7628 17.7358C80.3414 18.2045 79.8016 18.5691 79.1435 18.8295C78.4853 19.0852 77.7325 19.2131 76.8849 19.2131ZM88.6694 19.2131C87.5804 19.2131 86.6452 18.974 85.864 18.4957C85.0875 18.0175 84.4885 17.357 84.0671 16.5142C83.6504 15.6667 83.4421 14.6913 83.4421 13.5881C83.4421 12.4801 83.6552 11.5024 84.0813 10.6548C84.5075 9.80256 85.1088 9.13968 85.8853 8.66619C86.6665 8.18797 87.5898 7.94886 88.6552 7.94886C89.5406 7.94886 90.3242 8.11222 91.006 8.43892C91.6926 8.76089 92.2395 9.2178 92.6467 9.80966C93.0539 10.3968 93.2859 11.0833 93.3427 11.8693H90.8853C90.7859 11.3437 90.5491 10.9058 90.1751 10.5554C89.8058 10.2003 89.311 10.0227 88.6907 10.0227C88.1651 10.0227 87.7035 10.1648 87.3058 10.4489C86.908 10.7282 86.5979 11.1307 86.3754 11.6562C86.1576 12.1818 86.0487 12.8116 86.0487 13.5455C86.0487 14.2888 86.1576 14.928 86.3754 15.4631C86.5932 15.9934 86.8986 16.4029 87.2915 16.6918C87.6893 16.9759 88.1557 17.1179 88.6907 17.1179C89.0695 17.1179 89.408 17.0469 89.7063 16.9048C90.0094 16.758 90.2627 16.5473 90.4663 16.2727C90.6699 15.9981 90.8095 15.6643 90.8853 15.2713H93.3427C93.2811 16.0431 93.0539 16.7273 92.6609 17.3239C92.2679 17.9157 91.7328 18.3797 91.0558 18.7159C90.3787 19.0473 89.5832 19.2131 88.6694 19.2131ZM100.901 8.09091V10.0795H94.63V8.09091H100.901ZM96.1783 5.47727H98.7493V15.7188C98.7493 16.0644 98.8014 16.3295 98.9055 16.5142C99.0144 16.6941 99.1565 16.8172 99.3317 16.8835C99.5069 16.9498 99.701 16.983 99.9141 16.983C100.075 16.983 100.222 16.9711 100.354 16.9474C100.492 16.9238 100.596 16.9025 100.667 16.8835L101.1 18.8935C100.963 18.9408 100.766 18.9929 100.511 19.0497C100.26 19.1065 99.9519 19.1397 99.5874 19.1491C98.9434 19.1681 98.3634 19.071 97.8473 18.858C97.3312 18.6402 96.9216 18.304 96.6186 17.8494C96.3203 17.3949 96.1735 16.8267 96.1783 16.1449V5.47727ZM108.126 4.45455H111.35L115.669 14.9943H115.839L120.157 4.45455H123.382V19H120.853V9.0071H120.718L116.699 18.9574H114.809L110.789 8.9858H110.654V19H108.126V4.45455ZM127.721 19.1562C127.29 19.1562 126.921 19.0047 126.613 18.7017C126.306 18.3987 126.154 18.0294 126.159 17.5938C126.154 17.1676 126.306 16.803 126.613 16.5C126.921 16.197 127.29 16.0455 127.721 16.0455C128.138 16.0455 128.5 16.197 128.808 16.5C129.12 16.803 129.279 17.1676 129.284 17.5938C129.279 17.8826 129.203 18.1454 129.056 18.3821C128.914 18.6188 128.725 18.8082 128.488 18.9503C128.256 19.0876 128.001 19.1562 127.721 19.1562Z" fill="#0D062D"/>
</svg>
